<svg id="Layer_1" enable-background="new 0 0 512 512" height="512" viewBox="0 0 512 512" width="512" xmlns="http://www.w3.org/2000/svg"><g><path d="m512 171.09c0 43.06-13.44 86.59-39.95 129.39-21 33.9-50.22 67.43-86.85 99.65-62.11 54.65-123.21 86.23-125.78 87.54-1.07.55-2.25.83-3.42.83s-2.35-.28-3.42-.83c-2.57-1.31-63.67-32.89-125.78-87.54-36.63-32.22-65.85-65.75-86.85-99.65-26.51-42.8-39.95-86.33-39.95-129.39 0-37.02 14.91-74.34 40.9-102.4 27.01-29.14 62.31-45.19 99.42-45.19 46.58 0 88.17 19.31 115.68 53.32 27.51-34.01 69.1-53.32 115.68-53.32.3 0 .6 0 .9.01 36.78.25 71.73 16.28 98.52 45.18 25.99 28.06 40.9 65.38 40.9 102.4z" fill="#ff928d"/><path d="m472 171.09c0 57.5-29 115.96-86.2 173.75-43.97 44.43-94.11 77.55-122.3 94.51-.02.01-.04.03-.06.04-1.25.75-2.46 1.47-3.62 2.16-1.17.7-2.5 1.05-3.82 1.05s-2.64-.35-3.82-1.05c-27.33-16.19-80.03-50.27-125.98-96.71-57.2-57.79-86.2-116.25-86.2-173.75 0-57.31 46.88-107.59 100.32-107.59 34.91 0 67.24 16.4 93.49 47.44 10.06 11.89 17.39 23.71 22.19 32.51 4.8-8.8 12.13-20.62 22.19-32.51 22.89-27.06 50.4-42.99 80.21-46.63 4.38-.54 8.82-.81 13.29-.81 53.44 0 100.31 50.28 100.31 107.59z" fill="#ea5e5e"/><path d="m472 171.09c0 57.5-29 115.96-86.2 173.75-43.97 44.43-94.11 77.55-122.3 94.51 129.85-88.35 183.5-210.76 183.5-268.26 0-53.08-40.21-100.13-88.6-106.78 4.38-.54 8.82-.81 13.29-.81 53.44 0 100.31 50.28 100.31 107.59z" fill="#d33737"/><path d="m361.16 283.6c0 15.39-12.53 27.92-27.92 27.92-3.72 0-7.28-.73-10.52-2.07-7.9-3.21-13.99-9.95-16.35-18.24-13.05-.19-18.9-1.23-19.17-1.28-2.56-.46-4.7-2.22-5.65-4.64-7.37-18.82-15.07-38.63-20.79-53.35-12.57 49.94-30.68 89.41-31.56 91.32-1.23 2.67-3.9 4.35-6.8 4.35-.2 0-.39-.01-.59-.02-3.12-.24-5.77-2.4-6.63-5.42-7.58-26.53-17.04-48.72-23.48-62.38-6.37 15.35-11.68 25.65-11.97 26.21-1.18 2.27-3.43 3.79-5.98 4.02-11.99 1.1-23.76.05-24.25 0-4.13-.37-7.17-4.02-6.79-8.15.38-4.12 4.04-7.16 8.15-6.79.09.01 8.3.74 17.4.29 3.07-6.3 9.45-19.98 15.54-36.54 1.01-2.75 3.53-4.65 6.44-4.89 2.91-.23 5.7 1.25 7.14 3.8.65 1.17 13.95 24.99 26.04 60.55 8.13-20.55 20.68-55.71 28.05-93.48.64-3.28 3.38-5.74 6.7-6.03 3.33-.3 6.45 1.64 7.66 4.76.15.38 14.38 37.15 28.05 72.09 2.68.23 6.77.49 12.43.58 2.31-8.39 8.44-15.22 16.4-18.47 3.25-1.33 6.81-2.06 10.53-2.06 15.39 0 27.92 12.52 27.92 27.92z" fill="#f6f4f9"/><g fill="#d33737"><circle cx="140.321" cy="106.432" r="7.5"/><circle cx="103.321" cy="123.112" r="7.5"/><circle cx="371.681" cy="106.432" r="7.5"/><circle cx="408.681" cy="123.112" r="7.5"/><circle cx="256.001" cy="392.022" r="7.5"/><circle cx="220.221" cy="369.092" r="7.5"/><circle cx="291.781" cy="369.092" r="7.5"/></g><path d="m512 171.09c0 43.06-13.44 86.59-39.95 129.39-21 33.9-50.22 67.43-86.85 99.65-62.11 54.65-123.21 86.23-125.78 87.54 379.61-276.88 184.13-462.58 113.16-464.16 36.78.25 71.73 16.28 98.52 45.18 25.99 28.06 40.9 65.38 40.9 102.4z" fill="#ea5e5e"/><path d="m361.16 283.6c0 15.39-12.53 27.92-27.92 27.92-3.72 0-7.28-.73-10.52-2.07 10.85-3.58 18.67-13.8 18.67-25.85s-7.83-22.27-18.68-25.86c3.25-1.33 6.81-2.06 10.53-2.06 15.39 0 27.92 12.52 27.92 27.92z" fill="#e9e4f2"/></g></svg>